# xmcd
#
# Track frame offsets:
#	150
#	17643
#	33681
#	46631
#	66044
#	79271
#	95997
#	112220
#	140043
#	158378
#	181445
#	193777
#	207416
#	219408
#
# Disc length: 3139 seconds
#
# Revision: 0
# Processed by: cddbd v1.5.2PL0 Copyright (c) Steve Scherf et al.
# Submitted via: audiograbber 1.83.01
#
DISCID=cc0c410e
DTITLE=Messner Joseph W. - Hoila griaﬂt enk!
DYEAR=2006
DGENRE=Comedy
TTITLE0=Hoila griaﬂt enk!
TTITLE1=In der Idylle
TTITLE2=Zi wos Bergsteigen
TTITLE3=Mir und inser Lond
TTITLE4=Sei froah dass gsund nou bisch
TTITLE5=Mamma und Papa tiats wos
TTITLE6=Hosch koan Rucksock....
TTITLE7=Baulied
TTITLE8=Meine Melodie
TTITLE9=Everybody needs somebody to love
TTITLE10=Stanislava aus Bratislava
TTITLE11=Hausfraun
TTITLE12=Josefilied
TTITLE13=S'hoache Haus von Gufidaun
EXTD=Live aufgezeichnet im Wirtshaus Rienzbr‰u am 20. Juni 2006
EXTT0=
EXTT1=
EXTT2=
EXTT3=
EXTT4=
EXTT5=
EXTT6=
EXTT7=
EXTT8=
EXTT9=
EXTT10=
EXTT11=
EXTT12=
EXTT13=
PLAYORDER=
